<?xml version="1.0" standalone="no"?>
<!DOCTYPE svg PUBLIC "-//W3C//DTD SVG 20010904//EN"
 "http://www.w3.org/TR/2001/REC-SVG-20010904/DTD/svg10.dtd">
<svg version="1.0" xmlns="http://www.w3.org/2000/svg"
 width="900.000000pt" height="506.000000pt" viewBox="0 0 900.000000 506.000000"
 preserveAspectRatio="xMidYMid meet">

<g transform="translate(0.000000,506.000000) scale(0.100000,-0.100000)"
fill="#000000" stroke="none">
<path d="M1627 3923 c-14 -14 -6 -42 14 -48 30 -10 57 18 39 39 -13 16 -42 21
-53 9z"/>
<path d="M930 3775 l0 -145 85 0 c84 0 85 0 85 25 0 24 -3 25 -55 25 l-55 0 0
120 0 120 -30 0 -30 0 0 -145z"/>
<path d="M2580 3910 c0 -6 18 -46 40 -90 32 -64 40 -90 40 -135 0 -54 0 -55
30 -55 29 0 30 1 30 50 0 40 10 69 45 140 25 49 45 92 45 95 0 4 -14 5 -32 3
-29 -3 -34 -9 -57 -66 l-24 -63 -27 63 c-24 57 -30 63 -58 66 -18 2 -32 -1
-32 -8z"/>
<path d="M3635 3908 c-29 -81 -95 -270 -95 -274 0 -2 14 -4 31 -4 24 0 32 6
40 30 10 28 14 30 64 30 51 0 54 -1 60 -30 6 -26 11 -30 41 -30 19 0 34 1 34
3 0 1 -22 65 -49 142 l-49 140 -36 3 c-23 2 -38 -2 -41 -10z m70 -149 c5 -16
1 -19 -29 -19 -42 0 -41 -1 -19 71 l16 54 13 -44 c8 -24 16 -52 19 -62z"/>
<path d="M2130 3880 c-16 -4 -26 -14 -28 -28 -2 -12 -10 -22 -18 -22 -8 0 -14
-9 -14 -20 0 -11 7 -20 15 -20 12 0 15 -13 15 -60 0 -47 4 -64 21 -81 28 -28
83 -23 87 8 2 16 -3 22 -20 25 -21 3 -23 8 -23 53 0 44 3 50 23 53 32 5 30 42
-2 42 -20 0 -25 6 -28 28 -3 24 -6 27 -28 22z"/>
<path d="M5000 3880 c-16 -4 -26 -14 -28 -28 -2 -12 -10 -22 -18 -22 -19 0
-18 -36 1 -44 11 -4 15 -21 15 -61 0 -42 5 -60 21 -76 28 -28 83 -23 87 8 2
16 -3 22 -20 25 -21 3 -23 8 -23 53 0 44 3 50 23 53 32 5 30 42 -2 42 -20 0
-25 6 -28 28 -3 24 -6 27 -28 22z"/>
<path d="M1168 3815 c-34 -19 -48 -44 -48 -88 0 -91 118 -130 186 -62 32 32
33 93 1 130 -28 34 -98 43 -139 20z m100 -64 c7 -45 -6 -71 -36 -71 -35 0 -52
16 -52 50 0 35 19 52 55 48 23 -2 31 -9 33 -27z"/>
<path d="M1415 3818 c-35 -19 -45 -40 -45 -94 0 -45 4 -56 26 -73 32 -25 61
-27 92 -5 20 14 22 14 22 -4 0 -40 -25 -57 -79 -55 -44 2 -51 0 -51 -16 0 -35
87 -42 138 -11 44 27 52 54 52 171 l0 99 -30 0 c-16 0 -30 -5 -30 -10 0 -7 -6
-7 -19 0 -25 13 -51 12 -76 -2z m89 -54 c18 -46 -1 -84 -41 -84 -31 0 -48 36
-34 73 8 21 17 27 40 27 17 0 31 -6 35 -16z"/>
<path d="M1620 3730 l0 -100 30 0 30 0 0 100 0 100 -30 0 -30 0 0 -100z"/>
<path d="M1740 3730 l0 -100 30 0 29 0 3 73 c3 67 5 72 27 75 32 5 41 -12 41
-85 l0 -63 31 0 31 0 -3 79 c-3 60 -9 84 -23 100 -23 25 -53 27 -84 5 -20 -14
-22 -14 -22 0 0 11 -10 16 -30 16 l-30 0 0 -100z"/>
<path d="M2281 3817 c-48 -28 -63 -85 -36 -136 29 -58 128 -67 173 -16 32 37
31 103 -2 134 -30 28 -101 37 -135 18z m94 -87 c0 -42 -2 -45 -28 -48 -36 -4
-57 13 -57 47 0 36 19 53 55 49 28 -3 30 -5 30 -48z"/>
<path d="M2860 3823 c-64 -23 -84 -117 -34 -164 36 -34 112 -34 147 -1 84 79
-3 205 -113 165z m82 -68 c17 -39 -3 -75 -42 -75 -23 0 -33 6 -42 25 -17 39 3
75 42 75 23 0 33 -6 42 -25z"/>
<path d="M3050 3746 c0 -76 2 -86 22 -100 28 -20 62 -20 78 -1 7 8 16 15 21
15 5 0 9 -7 9 -15 0 -10 10 -15 30 -15 l30 0 0 100 0 100 -30 0 c-30 0 -30 0
-30 -56 0 -67 -13 -94 -44 -94 -28 0 -36 21 -36 98 0 49 -2 52 -25 52 -25 0
-25 -1 -25 -84z"/>
<path d="M3290 3730 l0 -100 30 0 c30 0 30 0 30 56 0 68 13 94 45 94 20 0 25
5 25 25 0 30 -24 33 -52 8 -17 -15 -18 -15 -18 0 0 12 -9 17 -30 17 l-30 0 0
-100z"/>
<path d="M3894 3820 c-75 -31 -84 -139 -15 -175 51 -26 111 -18 111 16 0 16
-7 19 -40 19 -33 0 -42 4 -52 25 -8 19 -8 31 0 50 10 21 19 25 52 25 37 0 41
2 38 23 -2 17 -10 22 -38 24 -19 1 -45 -2 -56 -7z"/>
<path d="M4084 3820 c-75 -31 -84 -139 -15 -175 51 -26 111 -18 111 16 0 16
-7 19 -40 19 -33 0 -42 4 -52 25 -8 19 -8 31 0 50 10 21 19 25 52 25 37 0 41
2 38 23 -2 17 -10 22 -38 24 -19 1 -45 -2 -56 -7z"/>
<path d="M4280 3823 c-64 -23 -84 -117 -34 -164 36 -34 112 -34 147 -1 84 79
-3 205 -113 165z m82 -68 c17 -39 -3 -75 -42 -75 -23 0 -33 6 -42 25 -17 39 3
75 42 75 23 0 33 -6 42 -25z"/>
<path d="M4470 3750 c0 -67 3 -83 20 -100 24 -24 57 -26 88 -4 20 14 22 14 22
0 0 -11 10 -16 30 -16 l30 0 0 100 0 100 -30 0 -30 0 0 -62 c0 -74 -9 -91 -41
-86 -22 3 -24 8 -27 76 l-3 72 -29 0 -30 0 0 -80z"/>
<path d="M4710 3730 l0 -100 30 0 c29 0 29 0 32 66 3 70 18 94 52 81 13 -5 16
-21 16 -77 l0 -70 30 0 30 0 0 84 c0 76 -2 86 -22 100 -12 9 -32 16 -43 16
-11 0 -31 -7 -43 -16 -20 -14 -22 -14 -22 0 0 11 -10 16 -30 16 l-30 0 0 -100z"/>
<path d="M1173 3023 c9 -2 25 -2 35 0 9 3 1 5 -18 5 -19 0 -27 -2 -17 -5z"/>
<path d="M1473 2980 c0 -30 2 -43 4 -27 2 15 2 39 0 55 -2 15 -4 2 -4 -28z"/>
<path d="M1282 2996 c7 -8 15 -12 17 -11 5 6 -10 25 -20 25 -5 0 -4 -6 3 -14z"/>
<path d="M1317 3003 c6 -4 13 -24 16 -43 4 -34 4 -33 3 4 -1 26 -6 41 -16 43
-10 3 -11 2 -3 -4z"/>
<path d="M1366 3001 c-3 -4 6 -6 19 -3 14 2 25 6 25 8 0 8 -39 4 -44 -5z"/>
<path d="M1443 2970 c0 -25 2 -35 4 -22 2 12 2 32 0 45 -2 12 -4 2 -4 -23z"/>
<path d="M1173 2983 c9 -2 25 -2 35 0 9 3 1 5 -18 5 -19 0 -27 -2 -17 -5z"/>
<path d="M1370 2970 c-18 -12 -2 -12 25 0 13 6 15 9 5 9 -8 0 -22 -4 -30 -9z"/>
<path d="M1367 2939 c7 -7 15 -10 18 -7 3 3 -2 9 -12 12 -14 6 -15 5 -6 -5z"/>
<path d="M1173 2933 c9 -2 25 -2 35 0 9 3 1 5 -18 5 -19 0 -27 -2 -17 -5z"/>
<path d="M1160 2466 c0 -2 13 -6 29 -8 17 -2 28 -1 25 4 -5 8 -54 12 -54 4z"/>
<path d="M1273 2444 c20 -6 23 -24 5 -24 -10 0 -9 -3 1 -9 16 -11 6 -31 -16
-31 -10 0 -13 6 -8 18 5 13 3 14 -6 5 -16 -16 -2 -33 27 -31 22 2 25 6 22 38
-2 26 -8 35 -23 37 -16 1 -16 1 -2 -3z"/>
<path d="M1324 2438 c-7 -11 22 -39 40 -37 6 0 1 5 -11 11 -28 14 -30 32 -3
25 11 -3 18 -1 14 4 -7 13 -31 11 -40 -3z"/>
<path d="M1394 2438 c-7 -11 22 -39 40 -37 6 0 1 5 -11 11 -28 14 -30 32 -3
25 11 -3 18 -1 14 4 -7 13 -31 11 -40 -3z"/>
<path d="M1570 2435 c-15 -18 -10 -45 12 -59 12 -7 21 -7 28 0 8 8 4 10 -12
10 -18 -1 -23 4 -23 24 0 19 5 25 22 24 12 0 20 3 17 8 -8 13 -30 9 -44 -7z"/>
<path d="M1697 2443 c-3 -5 5 -8 18 -8 13 0 21 3 18 8 -2 4 -10 7 -18 7 -8 0
-16 -3 -18 -7z"/>
<path d="M1643 2405 c0 -22 2 -30 4 -17 2 12 2 30 0 40 -3 9 -5 -1 -4 -23z"/>
<path d="M1185 2420 l-30 -8 27 -1 c15 0 30 4 33 9 3 6 5 9 3 9 -2 -1 -16 -5
-33 -9z"/>
<path d="M1327 2378 c2 -5 10 -8 18 -8 8 0 16 3 18 8 3 4 -5 7 -18 7 -13 0
-21 -3 -18 -7z"/>
<path d="M1397 2378 c2 -5 10 -8 18 -8 8 0 16 3 18 8 3 4 -5 7 -18 7 -13 0
-21 -3 -18 -7z"/>
<path d="M1697 2379 c7 -7 15 -10 18 -7 3 3 -2 9 -12 12 -14 6 -15 5 -6 -5z"/>
<path d="M7257 2183 c-14 -14 -6 -45 13 -50 11 -3 20 -10 20 -15 0 -6 -11 -7
-27 -3 -24 6 -25 4 -13 -10 19 -23 54 -15 58 12 3 17 -3 26 -22 33 -34 13 -33
24 1 15 23 -5 25 -4 14 9 -14 17 -33 21 -44 9z"/>
<path d="M7582 2149 c6 -80 70 -80 76 0 2 24 -1 41 -7 41 -6 0 -11 -18 -11
-40 0 -33 -3 -40 -20 -40 -17 0 -20 7 -20 40 0 22 -5 40 -11 40 -6 0 -9 -17
-7 -41z"/>
<path d="M7330 2130 c0 -22 5 -40 10 -40 6 0 10 18 10 40 0 22 -4 40 -10 40
-5 0 -10 -18 -10 -40z"/>
<path d="M7374 2157 c-2 -7 -3 -31 -2 -53 3 -34 7 -39 28 -39 23 0 25 4 28 50
3 48 2 51 -23 53 -14 1 -28 -4 -31 -11z m42 -18 c10 -17 -13 -36 -27 -22 -12
12 -4 33 11 33 5 0 12 -5 16 -11z m4 -49 c0 -5 -7 -10 -16 -10 -8 0 -12 5 -9
10 3 6 10 10 16 10 5 0 9 -4 9 -10z"/>
<path d="M7461 2126 c1 -37 2 -38 8 -12 9 41 31 46 31 7 0 -17 5 -31 11 -31 6
0 9 16 7 38 -3 33 -6 37 -30 38 -26 1 -28 -1 -27 -40z"/>
<path d="M7680 2113 c0 -29 5 -53 10 -53 6 0 10 9 10 19 0 14 5 18 19 14 13
-3 21 2 26 16 11 36 -3 60 -35 59 -29 -1 -30 -2 -30 -55z m50 17 c0 -11 -7
-20 -15 -20 -8 0 -15 9 -15 20 0 11 7 20 15 20 8 0 15 -9 15 -20z"/>
<path d="M2200 1906 c0 -18 -4 -23 -18 -19 -24 6 -44 -19 -40 -49 2 -18 10
-23 36 -24 l32 -1 0 59 c0 32 -2 58 -5 58 -3 0 -5 -11 -5 -24z m-5 -56 c0 -29
-32 -41 -41 -16 -9 24 4 48 23 44 12 -2 18 -12 18 -28z"/>
<path d="M1083 1913 c9 -2 23 -2 30 0 6 3 -1 5 -18 5 -16 0 -22 -2 -12 -5z"/>
<path d="M1581 1863 c1 -32 4 -48 6 -36 2 13 13 23 25 25 12 2 23 9 24 16 1 7
0 8 -3 2 -2 -5 -13 -10 -24 -10 -14 0 -19 7 -19 25 0 18 5 25 19 25 11 0 22
-5 24 -10 3 -6 4 -5 3 2 -1 7 -15 14 -29 16 -27 3 -27 3 -26 -55z"/>
<path d="M2298 1913 c26 -5 28 -16 7 -33 -8 -7 -15 -17 -15 -23 0 -5 9 2 21
17 23 29 18 47 -14 45 -22 -2 -22 -2 1 -6z"/>
<path d="M1478 1897 c-7 -22 7 -80 20 -83 7 -1 8 0 2 3 -12 6 -13 60 -1 65 5
2 3 8 -4 15 -10 9 -14 9 -17 0z"/>
<path d="M1147 1884 c-4 -4 -7 -12 -7 -18 0 -6 4 -5 9 2 14 23 46 10 46 -18 0
-28 -32 -41 -47 -18 -8 10 -9 10 -5 -2 5 -21 47 -19 61 3 8 12 8 22 0 35 -12
18 -45 28 -57 16z"/>
<path d="M1295 1879 c-4 -6 -4 -13 -1 -16 3 -4 6 -1 6 5 0 6 8 13 18 15 15 4
15 5 0 6 -9 0 -20 -4 -23 -10z"/>
<path d="M1392 1878 c-24 -24 -7 -69 28 -67 9 0 6 4 -8 10 -17 6 -22 15 -20
31 3 26 36 37 50 16 8 -10 9 -10 5 2 -5 19 -39 24 -55 8z"/>
<path d="M1683 1884 c20 -6 23 -24 3 -24 -7 0 -20 -8 -27 -17 -11 -15 -11 -16
1 -5 21 18 38 15 43 -10 3 -13 4 -5 4 17 -2 32 -6 40 -22 42 -16 1 -16 1 -2
-3z"/>
<path d="M1747 1883 c-13 -13 -7 -32 13 -38 27 -9 25 -25 -2 -26 -19 -1 -20
-2 -4 -6 10 -3 23 0 30 7 8 9 6 16 -11 27 -28 19 -29 30 -5 36 14 4 14 5 1 6
-9 0 -19 -2 -22 -6z"/>
<path d="M1816 1881 c-4 -5 3 -7 14 -4 23 6 26 13 6 13 -8 0 -17 -4 -20 -9z"/>
<path d="M1917 1883 c-4 -3 -7 -11 -7 -17 0 -6 5 -5 12 2 6 6 9 14 7 17 -3 3
-9 2 -12 -2z"/>
<path d="M2000 1875 c-26 -31 13 -82 44 -56 21 17 21 57 0 65 -23 9 -30 8 -44
-9z m45 -25 c0 -29 -32 -41 -41 -16 -9 24 4 48 23 44 12 -2 18 -12 18 -28z"/>
<path d="M2093 1850 c0 -25 2 -35 4 -22 2 12 2 32 0 45 -2 12 -4 2 -4 -23z"/>
<path d="M1078 1863 c6 -2 18 -2 25 0 6 3 1 5 -13 5 -14 0 -19 -2 -12 -5z"/>
<path d="M1823 1849 c9 -5 17 -14 17 -19 0 -5 -8 -11 -17 -13 -17 -4 -17 -5 0
-6 22 -1 34 28 16 40 -8 5 -18 9 -24 9 -5 -1 -2 -5 8 -11z"/>
<path d="M1881 1850 c0 -8 3 -21 8 -28 7 -11 9 -10 14 3 4 9 3 13 -2 10 -5 -3
-12 3 -14 12 -3 13 -5 14 -6 3z"/>
<path d="M1946 1834 c-4 -9 -4 -19 -1 -22 2 -3 7 3 11 12 4 9 4 19 1 22 -2 3
-7 -3 -11 -12z"/>
<path d="M1293 1830 c2 -8 12 -16 23 -17 13 -2 15 -1 4 4 -8 3 -19 11 -23 17
-6 7 -7 6 -4 -4z"/>
<path d="M1668 1813 c7 -3 16 -2 19 1 4 3 -2 6 -13 5 -11 0 -14 -3 -6 -6z"/>
<path d="M1103 1793 c31 -2 83 -2 115 0 31 2 5 3 -58 3 -63 0 -89 -1 -57 -3z"/>
<path d="M1334 1791 c-5 -5 -18 -11 -29 -14 -15 -4 -14 -5 7 -6 15 0 30 4 33
10 9 14 1 21 -11 10z"/>
<path d="M1607 1793 c133 -2 353 -2 490 0 136 1 28 2 -242 2 -269 0 -381 -1
-248 -2z"/>
</g>
</svg>
